<svg enable-background="new 0 0 64 64" viewBox="0 0 64 64" xmlns="http://www.w3.org/2000/svg"><circle cx="32" cy="32" fill="#f5cf87" r="32"/><path d="m31.3 26.7-15.1 17.5c-.7.7-.7 1.8 0 2.4l.8.8-2 2c-.6.6-.6 1.5 0 2.1.3.3.7.4 1.1.4s.8-.1 1.1-.4l2-2 .6.6c.7.7 1.8.7 2.4 0l17.7-14.9c-2.1-.5-4-1.5-5.5-3-1.7-1.5-2.7-3.5-3.1-5.5z" fill="#231f20" opacity=".2"/><circle cx="42.2" cy="24.8" fill="#231f20" opacity=".2" r="9.2"/><circle cx="42.2" cy="21.8" fill="#e0995e" r="9.2"/><g fill="#4f5d73"><path d="m31.3 24.2-15.1 17.5c-.7.7-.7 1.8 0 2.4l.8.8-2 2c-.6.6-.6 1.5 0 2.1.3.3.7.4 1.1.4s.8-.1 1.1-.4l2-2 .6.6c.7.7 1.8.7 2.4 0l17.7-14.9c-2.1-.5-4-1.5-5.5-3-1.7-1.5-2.7-3.5-3.1-5.5z"/><path d="m48 28.9c-2.8-.9-5.4-2.5-7.6-4.6-2.5-2.5-4.1-5.5-4.9-8.8-3.4 3.6-3.4 9.3.1 12.8 1.8 1.8 4.1 2.7 6.5 2.7 2.2 0 4.2-.7 5.9-2.1z"/><path d="m48.7 15.3c-1.8-1.8-4.1-2.7-6.5-2.7-1.4 0-2.8.3-4.1 1 .6 3.2 2 6.2 4.5 8.6 2.2 2.2 4.8 3.6 7.6 4.2 1.9-3.4 1.5-8-1.5-11.1z"/></g></svg>